<svg viewBox="0 0 1200 1200" fill="none">
  <defs />
  <path d="M620.11 1080c163.01-19.7 316.442-96.047 427.42-227.122 110.97-131.076 160.19-294.087 151.46-456.608-163.01 19.697-316.44 96.045-427.416 227.121C660.599 754.467 611.377 917.477 620.11 1080z" fill="#000" />
  <path d="M620.11 1080c163.01-19.7 316.442-96.047 427.42-227.122 110.97-131.076 160.19-294.087 151.46-456.608-163.01 19.697-316.44 96.045-427.416 227.121C660.599 754.467 611.377 917.477 620.11 1080z" fill="#f4ddf9" />
  <path d="M579.866 1080c8.734-162.522-40.488-325.532-151.463-456.608C317.427 492.316 163.995 415.968.985 396.271-7.748 558.792 41.474 721.803 152.45 852.879 263.425 983.954 416.857 1060.3 579.866 1080z" fill="#000" />
  <path d="M579.866 1080c8.734-162.522-40.488-325.532-151.463-456.608C317.427 492.316 163.995 415.968.985 396.271-7.748 558.792 41.474 721.803 152.45 852.879 263.425 983.954 416.857 1060.3 579.866 1080z" fill="#f4ddf9" />
  <path fill-rule="evenodd" clip-rule="evenodd" d="M716.125 347.177C686.413 286.02 647.237 229.748 600.35 180c-47.016 49.884-86.278 106.329-116.02 167.68 45.721 47.207 84.886 101.278 115.654 161.448 30.876-60.384 70.211-114.625 116.141-161.951z" fill="#000" />
  <path fill-rule="evenodd" clip-rule="evenodd" d="M716.125 347.177C686.413 286.02 647.237 229.748 600.35 180c-47.016 49.884-86.278 106.329-116.02 167.68 45.721 47.207 84.886 101.278 115.654 161.448 30.876-60.384 70.211-114.625 116.141-161.951z" fill="#f4ddf9" />
  <path fill-rule="evenodd" clip-rule="evenodd" d="M229.895 432.306c6.78-67.71 24.192-134.037 51.15-196.829 130.8 65.913 238.804 171.738 302.444 308.236a673.766 673.766 0 00-16.037 39.727c-17.014 46.328-28.557 93.398-34.943 140.562-22.237-42.043-49.278-82.278-81.211-119.995-62.721-74.081-138.35-131.4-221.403-171.701z" fill="#000" />
  <path fill-rule="evenodd" clip-rule="evenodd" d="M229.895 432.306c6.78-67.71 24.192-134.037 51.15-196.829 130.8 65.913 238.804 171.738 302.444 308.236a673.766 673.766 0 00-16.037 39.727c-17.014 46.328-28.557 93.398-34.943 140.562-22.237-42.043-49.278-82.278-81.211-119.995-62.721-74.081-138.35-131.4-221.403-171.701z" fill="#f4ddf9" />
  <path fill-rule="evenodd" clip-rule="evenodd" d="M970.071 432.31c-6.78-67.712-24.193-134.04-51.151-196.833-146.381 73.765-264.212 197.517-323.261 358.305-22.137 60.278-34.57 121.832-38.075 183.124 19.54 46.384 33.639 94.495 42.403 143.463 20.353-113.707 69.464-222.787 148.69-316.363 62.719-74.078 138.344-131.396 221.394-171.696z" fill="#000" />
  <path fill-rule="evenodd" clip-rule="evenodd" d="M970.071 432.31c-6.78-67.712-24.193-134.04-51.151-196.833-146.381 73.765-264.212 197.517-323.261 358.305-22.137 60.278-34.57 121.832-38.075 183.124 19.54 46.384 33.639 94.495 42.403 143.463 20.353-113.707 69.464-222.787 148.69-316.363 62.719-74.078 138.344-131.396 221.394-171.696z" fill="#f4ddf9" />
</svg>
